<?xml version="1.0" encoding="utf-8"?>
<!-- Generator: Adobe Illustrator 19.0.0, SVG Export Plug-In . SVG Version: 6.00 Build 0)  -->
<svg version="1.1" id="Layer_1" xmlns="http://www.w3.org/2000/svg" xmlns:xlink="http://www.w3.org/1999/xlink" x="0px" y="0px"
	 viewBox="131 -131 512 512" style="enable-background:new 131 -131 512 512;" xml:space="preserve">
<g id="XMLID_4_">
	<path fill="#13aa13" id="XMLID_6_" d="M398.2,94.7c-64.5-16.6-86-34.2-86-61.6c0-31.3,28.3-52.8,77.2-52.8c50.8,0,69.4,24.4,71.3,59.6h63.5
		C522.2-9,492-53.9,432.4-68.6V-131h-86v61.6c-55.7,11.7-99.7,47.9-99.7,102.6c0,65.5,54.7,98.7,133.9,117.3
		c71.3,17.6,86,42,86,68.4c0,19.5-13.7,50.8-77.2,50.8c-58.6,0-82.1-26.4-85-59.6h-62.5c3.9,62.5,49.8,97.7,104.5,109.4V381h86
		v-59.6c55.7-10.7,99.7-43,99.7-101.6C533.1,139.7,463.7,111.3,398.2,94.7z"/>
</g>
</svg>
