<?xml version="1.0" encoding="utf-8"?>
<!-- Generator: Adobe Illustrator 24.1.1, SVG Export Plug-In . SVG Version: 6.00 Build 0)  -->
<svg version="1.1" id="Layer_1" xmlns="http://www.w3.org/2000/svg" xmlns:xlink="http://www.w3.org/1999/xlink" x="0px" y="0px"
	 viewBox="0 0 512 512" style="enable-background:new 0 0 512 512;" xml:space="preserve">
<g>
	<path fill="#c4c400" d="M374.8,9.4c-12.4-12.5-32.6-12.6-45.2-0.1c-3.3,3.3-5.6,7.3-7.2,11.3c-26.6,55.5-55.8,86.7-92.8,105.2
		c-41.4,20.5-89,34.7-165.7,34.7c-4.2,0-8.3,0.8-12.2,2.4c-7.8,3.2-14,9.5-17.3,17.3c-3.2,7.8-3.2,16.6,0,24.4
		c1.6,3.9,4,7.5,6.9,10.4L145,318.7L0,512l193.3-145L297,470.6c2.9,3,6.5,5.3,10.4,6.9c3.9,1.6,8.1,2.5,12.2,2.5
		c4.2,0,8.3-0.9,12.2-2.5c7.8-3.3,14.1-9.4,17.3-17.3c1.6-3.9,2.5-8.1,2.5-12.2c0-76.7,14.2-124.3,34.6-165.1
		c18.4-36.9,49.7-66.2,105.2-92.8c4.1-1.6,8-3.9,11.3-7.2c12.4-12.6,12.4-32.7-0.1-45.2L374.8,9.4z"/>
</g>
</svg>
