<?xml version="1.0" encoding="utf-8"?>
<!-- Generator: Adobe Illustrator 24.1.1, SVG Export Plug-In . SVG Version: 6.00 Build 0)  -->
<svg version="1.1" id="Layer_1" xmlns="http://www.w3.org/2000/svg" xmlns:xlink="http://www.w3.org/1999/xlink" x="0px" y="0px"
	 viewBox="0 0 512 512" style="enable-background:new 0 0 512 512;" xml:space="preserve">
<g>
	<path fill="#a80000" d="M499.2,183.4H328.5V12.8c0-7.1-5.7-12.8-12.8-12.8H196.2c-7.1,0-12.8,5.7-12.8,12.8l0,170.6l-170.6,0
		c-6.8,0-12.8,6-12.8,12.8v119.5c0,3.4,1.3,6.7,3.8,9.1c2.4,2.4,5.7,3.7,9.1,3.7h170.6v170.7c0,3.4,1.3,6.7,3.7,9.1
		c2.4,2.4,5.7,3.8,9.1,3.8h119.5c3.4,0,6.7-1.4,9.1-3.8c2.4-2.4,3.7-5.6,3.7-9V328.5l170.6,0c3.5,0,6.7-1.4,9.1-3.7
		c2.3-2.3,3.8-5.5,3.8-9.1l0-119.5C512,189.1,506.3,183.4,499.2,183.4z"/>
</g>
</svg>
